/vscmnt/brussel_pixiu_data/_data_brussel/112/vsc11236/PredSimResults/SUBJ09mtu3D/SUBJ09mtu3D_12829608.mot
version=1
nRows=4
nColumns=50
inDegrees=yes
endheader
                time	         pelvis_tilt	         pelvis_list	     pelvis_rotation	           pelvis_tx	           pelvis_ty	           pelvis_tz	       hip_flexion_r	     hip_adduction_r	      hip_rotation_r	        knee_angle_r	       ankle_angle_r	         mtp_angle_r	       hip_flexion_l	     hip_adduction_l	      hip_rotation_l	        knee_angle_l	       ankle_angle_l	         mtp_angle_l	    lumbar_extension	      lumbar_bending	     lumbar_rotation	 ercspn_r/activation	 intobl_r/activation	 extobl_r/activation	    abd_r/activation	    add_r/activation	hamstrings_r/activation	bifemsh_r/activation	glut_max_r/activation	iliopsoas_r/activation	rect_fem_r/activation	  vasti_r/activation	gastroc_r/activation	 soleus_r/activation	tib_ant_r/activation	 ercspn_l/activation	 intobl_l/activation	 extobl_l/activation	    abd_l/activation	    add_l/activation	hamstrings_l/activation	bifemsh_l/activation	glut_max_l/activation	iliopsoas_l/activation	rect_fem_l/activation	  vasti_l/activation	gastroc_l/activation	 soleus_l/activation	tib_ant_l/activation	
          1.86197909	         -7.33621065	          4.57222850	         -7.06344837	          2.30885407	          0.97953722	          0.01082625	        -11.76535250	         -4.86965234	          3.89470331	         -8.08951706	          9.71099109	         29.49008442	         31.15504563	          1.86894896	         -4.82525033	         -3.00375380	          6.45095746	          0.22893957	         -0.94094319	         -3.46919280	          4.02001506	          0.07918227	          0.01000001	          0.01000002	          0.04386032	          0.01796772	          0.01636426	          0.11564346	          0.03090284	          0.45623657	          0.01664572	          0.01932443	          0.29118782	          0.25959963	          0.01456572	          0.08343173	          0.11673609	          0.02851785	          0.01599480	          0.10028428	          0.11445337	          0.22340733	          0.05823454	          0.10569307	          0.01000017	          0.01000001	          0.02696506	          0.01456573	          0.27212963	
          1.87439228	         -7.40462966	          4.53305333	         -7.03684659	          2.32757580	          0.97776014	          0.01067967	        -11.75067014	         -4.84182902	          3.52143857	         -9.97278275	          8.82489734	         31.63105721	         31.02508073	          1.97099741	         -4.69690192	         -4.55705912	          6.04776184	          0.19911160	         -0.63252026	         -3.81694733	          4.15125963	          0.08256466	          0.01000000	          0.01000004	          0.03634171	          0.01771748	          0.01598315	          0.09581967	          0.02560543	          0.42864192	          0.01379234	          0.02016017	          0.24441111	          0.22703952	          0.01206884	          0.06912973	          0.09672502	          0.02362927	          0.06328537	          0.08309338	          0.10049990	          0.18511059	          0.10779800	          0.08757498	          0.01000002	          0.01000000	          0.02234267	          0.01206887	          0.31635329	
          1.88680548	         -7.45552316	          4.49706183	         -6.96305295	          2.34645232	          0.97639345	          0.01043962	        -11.52910683	         -4.81006511	          3.12854938	        -12.25306531	          7.75361506	         33.73926982	         30.73585326	          2.08644771	         -4.57333842	         -5.82979266	          5.44710904	          0.19109212	         -0.32738402	         -4.17539650	          4.24839616	          0.10675633	          0.01000000	          0.01000002	          0.03011195	          0.01519110	          0.01905352	          0.07939411	          0.02121610	          0.40145915	          0.01206852	          0.01670429	          0.20251374	          0.18812002	          0.00999999	          0.06814283	          0.08014426	          0.01957870	          0.11906593	          0.08534684	          0.08327211	          0.15337865	          0.15421644	          0.07256273	          0.01000002	          0.01000000	          0.01851266	          0.01000001	          0.35759104	
          1.89921867	         -7.48898130	          4.46097778	         -6.84684431	          2.36516377	          0.97564007	          0.01010935	        -10.99876423	         -4.76928841	          2.72778122	        -15.06719935	          6.48969125	         35.66418168	         30.40335195	          2.22157023	         -4.44534566	         -7.03411336	          4.85128318	          0.15946820	         -0.05845274	         -4.54050173	          4.31102260	          0.14730846	          0.01000000	          0.01000003	          0.02495011	          0.03165491	          0.01578740	          0.06578425	          0.01757920	          0.36801863	          0.01000007	          0.01384082	          0.16779849	          0.15587216	          0.01000000	          0.06960664	          0.06640579	          0.01622249	          0.16036468	          0.11157243	          0.06899748	          0.12708623	          0.18895826	          0.06012390	          0.01000003	          0.01775561	          0.01533920	          0.01000010	          0.38757238	
